<svg width="16" height="16" xmlns="http://www.w3.org/2000/svg" fill="black">

 <g>
  <title>Layer 1</title>
  <ellipse ry="1.625" rx="1.65625" id="svg_23" cy="13.68749" cx="5.28125" fill="#000000"/>
  <ellipse ry="1.625" rx="1.65625" id="svg_24" cy="13.62499" cx="11.40624" fill="#000000"/>
  <path transform="rotate(90, 8.00559, 5.34261)" id="svg_32" d="m7.62204,7.52556l1.33775,-1.34829l-2.58648,0l-2.58647,0l0,-0.83466l0,-0.83466l2.5568,0c1.40624,0 2.5568,-0.0423 2.5568,-0.09401c0,-0.0517 -0.55982,-0.65844 -1.24404,-1.34829l-1.24404,-1.25428l1.14988,0l1.14987,0l1.75611,1.76731l1.75611,1.76731l-1.75948,1.76393l-1.75948,1.76393l-1.21054,0l-1.21054,0l1.33775,-1.34829l0,0z" fill="#000000"/>
  <rect id="svg_33" height="2.0625" width="11.06248" y="10.4375" x="2.56251" fill="#000000"/>
 </g>
</svg>